<?xml version="1.0" encoding="UTF-8"?>
<svg xmlns="http://www.w3.org/2000/svg" viewBox="0 0 740 540" width="740" height="540"
     font-family="system-ui, -apple-system, 'Segoe UI', sans-serif">

  <rect width="740" height="540" fill="#F8F9FB" rx="8"/>
  <text x="370" y="26" text-anchor="middle" font-size="13" font-weight="700" fill="#111827">Attention Score Matrix = QKᵀ</text>
  <text x="370" y="44" text-anchor="middle" font-size="10" fill="#6B7280">row = Query 위치 (무엇을 찾는가),  col = Key 위치 (무엇을 참고하는가)</text>

  <!-- Tokens: The, cat, is, on, the, mat -->
  <!-- Cell: 72×52, starting at x=120, y=72 -->
  <!-- 6 cols: 120,192,264,336,408,480  -->
  <!-- 6 rows: 72,124,176,228,280,332 -->

  <!-- Column headers (Key) -->
  <text x="370" y="62" text-anchor="middle" font-size="10" fill="#1D4ED8" font-weight="600">Key (j) →</text>
  <text x="156" y="70" text-anchor="middle" font-size="10" font-weight="700" fill="#1D4ED8">The</text>
  <text x="228" y="70" text-anchor="middle" font-size="10" font-weight="700" fill="#1D4ED8">cat</text>
  <text x="300" y="70" text-anchor="middle" font-size="10" font-weight="700" fill="#1D4ED8">is</text>
  <text x="372" y="70" text-anchor="middle" font-size="10" font-weight="700" fill="#1D4ED8">on</text>
  <text x="444" y="70" text-anchor="middle" font-size="10" font-weight="700" fill="#1D4ED8">the</text>
  <text x="516" y="70" text-anchor="middle" font-size="10" font-weight="700" fill="#1D4ED8">mat</text>

  <!-- Row headers (Query) -->
  <text x="56" y="220" text-anchor="middle" font-size="10" fill="#DC2626" font-weight="600" transform="rotate(-90,56,220)">Query (i) ↓</text>
  <text x="80" y="103" text-anchor="end" font-size="10" font-weight="700" fill="#DC2626">The</text>
  <text x="80" y="155" text-anchor="end" font-size="10" font-weight="700" fill="#DC2626">cat</text>
  <text x="80" y="207" text-anchor="end" font-size="10" font-weight="700" fill="#DC2626">is</text>
  <text x="80" y="259" text-anchor="end" font-size="10" font-weight="700" fill="#DC2626">on</text>
  <text x="80" y="311" text-anchor="end" font-size="10" font-weight="700" fill="#DC2626">the</text>
  <text x="80" y="363" text-anchor="end" font-size="10" font-weight="700" fill="#DC2626">mat</text>

  <!-- ===== Score Matrix Cells (softmax 후 예시 값) ===== -->
  <!-- Color: HIGH=#1D4ED8 text=white, MED=#93C5FD text=#1E3A8A, LOW=#DBEAFE text=#374151 -->

  <!-- Row 0: The (주로 자기 자신 + the(4)와 관계) -->
  <rect x="84" y="75" width="144" height="48" rx="0" fill="#1D4ED8"/>
  <text x="156" y="102" text-anchor="middle" font-size="12" font-weight="700" fill="white">0.42</text>

  <rect x="228" y="75" width="72" height="48" rx="0" fill="#DBEAFE"/>
  <text x="264" y="102" text-anchor="middle" font-size="12" fill="#374151">0.08</text>

  <rect x="300" y="75" width="72" height="48" rx="0" fill="#DBEAFE"/>
  <text x="336" y="102" text-anchor="middle" font-size="12" fill="#374151">0.06</text>

  <rect x="372" y="75" width="72" height="48" rx="0" fill="#DBEAFE"/>
  <text x="408" y="102" text-anchor="middle" font-size="12" fill="#374151">0.07</text>

  <rect x="444" y="75" width="72" height="48" rx="0" fill="#93C5FD"/>
  <text x="480" y="102" text-anchor="middle" font-size="12" fill="#1E3A8A">0.28</text>

  <rect x="516" y="75" width="72" height="48" rx="0" fill="#DBEAFE"/>
  <text x="552" y="102" text-anchor="middle" font-size="12" fill="#374151">0.09</text>

  <!-- Row 1: cat (자기 자신 + mat) -->
  <rect x="84" y="123" width="72" height="48" rx="0" fill="#DBEAFE"/>
  <text x="120" y="150" text-anchor="middle" font-size="12" fill="#374151">0.07</text>

  <rect x="156" y="123" width="72" height="48" rx="0" fill="#1D4ED8"/>
  <text x="192" y="150" text-anchor="middle" font-size="12" font-weight="700" fill="white">0.45</text>

  <rect x="228" y="123" width="72" height="48" rx="0" fill="#DBEAFE"/>
  <text x="264" y="150" text-anchor="middle" font-size="12" fill="#374151">0.10</text>

  <rect x="300" y="123" width="72" height="48" rx="0" fill="#DBEAFE"/>
  <text x="336" y="150" text-anchor="middle" font-size="12" fill="#374151">0.06</text>

  <rect x="372" y="123" width="72" height="48" rx="0" fill="#DBEAFE"/>
  <text x="408" y="150" text-anchor="middle" font-size="12" fill="#374151">0.08</text>

  <rect x="444" y="123" width="144" height="48" rx="0" fill="#93C5FD"/>
  <text x="516" y="150" text-anchor="middle" font-size="12" fill="#1E3A8A">0.24</text>

  <!-- Row 2: is -->
  <rect x="84" y="171" width="72" height="48" rx="0" fill="#DBEAFE"/>
  <text x="120" y="198" text-anchor="middle" font-size="12" fill="#374151">0.08</text>

  <rect x="156" y="171" width="72" height="48" rx="0" fill="#93C5FD"/>
  <text x="192" y="198" text-anchor="middle" font-size="12" fill="#1E3A8A">0.18</text>

  <rect x="228" y="171" width="72" height="48" rx="0" fill="#1D4ED8"/>
  <text x="264" y="198" text-anchor="middle" font-size="12" font-weight="700" fill="white">0.40</text>

  <rect x="300" y="171" width="72" height="48" rx="0" fill="#93C5FD"/>
  <text x="336" y="198" text-anchor="middle" font-size="12" fill="#1E3A8A">0.16</text>

  <rect x="372" y="171" width="72" height="48" rx="0" fill="#DBEAFE"/>
  <text x="408" y="198" text-anchor="middle" font-size="12" fill="#374151">0.10</text>

  <rect x="444" y="171" width="144" height="48" rx="0" fill="#DBEAFE"/>
  <text x="516" y="198" text-anchor="middle" font-size="12" fill="#374151">0.08</text>

  <!-- Row 3: on -->
  <rect x="84" y="219" width="72" height="48" rx="0" fill="#DBEAFE"/>
  <text x="120" y="246" text-anchor="middle" font-size="12" fill="#374151">0.07</text>

  <rect x="156" y="219" width="72" height="48" rx="0" fill="#DBEAFE"/>
  <text x="192" y="246" text-anchor="middle" font-size="12" fill="#374151">0.09</text>

  <rect x="228" y="219" width="72" height="48" rx="0" fill="#93C5FD"/>
  <text x="264" y="246" text-anchor="middle" font-size="12" fill="#1E3A8A">0.20</text>

  <rect x="300" y="219" width="72" height="48" rx="0" fill="#1D4ED8"/>
  <text x="336" y="246" text-anchor="middle" font-size="12" font-weight="700" fill="white">0.38</text>

  <rect x="372" y="219" width="72" height="48" rx="0" fill="#DBEAFE"/>
  <text x="408" y="246" text-anchor="middle" font-size="12" fill="#374151">0.07</text>

  <rect x="444" y="219" width="144" height="48" rx="0" fill="#93C5FD"/>
  <text x="516" y="246" text-anchor="middle" font-size="12" fill="#1E3A8A">0.19</text>

  <!-- Row 4: the -->
  <rect x="84" y="267" width="72" height="48" rx="0" fill="#93C5FD"/>
  <text x="120" y="294" text-anchor="middle" font-size="12" fill="#1E3A8A">0.26</text>

  <rect x="156" y="267" width="72" height="48" rx="0" fill="#DBEAFE"/>
  <text x="192" y="294" text-anchor="middle" font-size="12" fill="#374151">0.08</text>

  <rect x="228" y="267" width="72" height="48" rx="0" fill="#DBEAFE"/>
  <text x="264" y="294" text-anchor="middle" font-size="12" fill="#374151">0.06</text>

  <rect x="300" y="267" width="72" height="48" rx="0" fill="#DBEAFE"/>
  <text x="336" y="294" text-anchor="middle" font-size="12" fill="#374151">0.07</text>

  <rect x="372" y="267" width="72" height="48" rx="0" fill="#1D4ED8"/>
  <text x="408" y="294" text-anchor="middle" font-size="12" font-weight="700" fill="white">0.36</text>

  <rect x="444" y="267" width="144" height="48" rx="0" fill="#93C5FD"/>
  <text x="516" y="294" text-anchor="middle" font-size="12" fill="#1E3A8A">0.17</text>

  <!-- Row 5: mat (자기 자신 + cat) -->
  <rect x="84" y="315" width="72" height="48" rx="0" fill="#DBEAFE"/>
  <text x="120" y="342" text-anchor="middle" font-size="12" fill="#374151">0.06</text>

  <rect x="156" y="315" width="72" height="48" rx="0" fill="#93C5FD"/>
  <text x="192" y="342" text-anchor="middle" font-size="12" fill="#1E3A8A">0.22</text>

  <rect x="228" y="315" width="72" height="48" rx="0" fill="#DBEAFE"/>
  <text x="264" y="342" text-anchor="middle" font-size="12" fill="#374151">0.08</text>

  <rect x="300" y="315" width="72" height="48" rx="0" fill="#93C5FD"/>
  <text x="336" y="342" text-anchor="middle" font-size="12" fill="#1E3A8A">0.15</text>

  <rect x="372" y="315" width="72" height="48" rx="0" fill="#DBEAFE"/>
  <text x="408" y="342" text-anchor="middle" font-size="12" fill="#374151">0.08</text>

  <rect x="444" y="315" width="144" height="48" rx="0" fill="#1D4ED8"/>
  <text x="516" y="342" text-anchor="middle" font-size="12" font-weight="700" fill="white">0.41</text>

  <!-- Cell border lines (draw grid on top) -->
  <rect x="84" y="75" width="504" height="288" fill="none" stroke="#FFFFFF" stroke-width="2"/>
  <!-- Horizontal lines -->
  <line x1="84" y1="123" x2="588" y2="123" stroke="white" stroke-width="2"/>
  <line x1="84" y1="171" x2="588" y2="171" stroke="white" stroke-width="2"/>
  <line x1="84" y1="219" x2="588" y2="219" stroke="white" stroke-width="2"/>
  <line x1="84" y1="267" x2="588" y2="267" stroke="white" stroke-width="2"/>
  <line x1="84" y1="315" x2="588" y2="315" stroke="white" stroke-width="2"/>
  <!-- Vertical lines -->
  <line x1="156" y1="75" x2="156" y2="363" stroke="white" stroke-width="2"/>
  <line x1="228" y1="75" x2="228" y2="363" stroke="white" stroke-width="2"/>
  <line x1="300" y1="75" x2="300" y2="363" stroke="white" stroke-width="2"/>
  <line x1="372" y1="75" x2="372" y2="363" stroke="white" stroke-width="2"/>
  <line x1="444" y1="75" x2="444" y2="363" stroke="white" stroke-width="2"/>
  <line x1="516" y1="75" x2="516" y2="363" stroke="white" stroke-width="2"/>

  <!-- Legend -->
  <rect x="84" y="374" width="20" height="14" rx="2" fill="#1D4ED8"/>
  <text x="112" y="386" font-size="10" fill="#374151">높은 attention (≥ 0.35)</text>
  <rect x="270" y="374" width="20" height="14" rx="2" fill="#93C5FD"/>
  <text x="298" y="386" font-size="10" fill="#374151">중간 attention</text>
  <rect x="420" y="374" width="20" height="14" rx="2" fill="#DBEAFE"/>
  <text x="448" y="386" font-size="10" fill="#374151">낮은 attention</text>

  <!-- Annotation -->
  <text x="370" y="406" text-anchor="middle" font-size="10" fill="#374151">각 row의 값은 softmax 이후라 합이 1.0  |  값은 설명을 위한 예시 (학습된 실제 값은 다름)</text>

  <!-- score_ij formula -->
  <rect x="84" y="416" width="554" height="32" rx="6" fill="#FFFBEB" stroke="#FCD34D" stroke-width="1.5"/>
  <text x="361" y="436" text-anchor="middle" font-size="11" fill="#78350F" font-weight="600">score[i][j] = q_i · k_j  →  i번째 Query가 j번째 Key를 얼마나 "검색했는지" 나타낸다</text>

  <text x="370" y="526" text-anchor="middle" font-size="9" fill="#9CA3AF" font-style="italic">Redrawn based on "Attention Is All You Need", Vaswani et al., 2017.</text>
</svg>
